{
    "asset" : {
        "generator" : "Khronos glTF Blender I/O v1.8.19",
        "version" : "2.0"
    },
    "scene" : 0,
    "scenes" : [
        {
            "name" : "Scene",
            "nodes" : [
                0
            ]
        }
    ],
    "nodes" : [
        {
            "mesh" : 0,
            "name" : "Sphere"
        }
    ],
    "meshes" : [
        {
            "name" : "Sphere",
            "primitives" : [
                {
                    "attributes" : {
                        "POSITION" : 0,
                        "NORMAL" : 1,
                        "TEXCOORD_0" : 2
                    },
                    "indices" : 3
                }
            ]
        }
    ],
    "accessors" : [
        {
            "bufferView" : 0,
            "componentType" : 5126,
            "count" : 8383,
            "max" : [
                0.9999995827674866,
                1,
                0.9999992251396179
            ],
            "min" : [
                -0.9999986886978149,
                -1,
                -1
            ],
            "type" : "VEC3"
        },
        {
            "bufferView" : 1,
            "componentType" : 5126,
            "count" : 8383,
            "type" : "VEC3"
        },
        {
            "bufferView" : 2,
            "componentType" : 5126,
            "count" : 8383,
            "type" : "VEC2"
        },
        {
            "bufferView" : 3,
            "componentType" : 5123,
            "count" : 48384,
            "type" : "SCALAR"
        }
    ],
    "bufferViews" : [
        {
            "buffer" : 0,
            "byteLength" : 100596,
            "byteOffset" : 0
        },
        {
            "buffer" : 0,
            "byteLength" : 100596,
            "byteOffset" : 100596
        },
        {
            "buffer" : 0,
            "byteLength" : 67064,
            "byteOffset" : 201192
        },
        {
            "buffer" : 0,
            "byteLength" : 96768,
            "byteOffset" : 268256
        }
    ],
    "buffers" : [
        {
            "byteLength" : 365024,
            "uri" : "sphere.bin"
        }
    ]
}
